<svg width="171" height="40" viewBox="0 0 171 40" fill="none" xmlns="http://www.w3.org/2000/svg">
<path d="M58 39H44C46.208 39 48 37.208 48 35V7L54 1V35C54 37.008 55.792 39 58 39ZM4 7V35C4 37.208 2.208 39 0 39H14C11.792 39 10 37.208 10 35V1L4 7ZM28 35V12C28 7.032 23.968 3 19 3C14.032 3 10 7.032 10 12C10 5.376 15.376 0 22 0C28.624 0 34 5.376 34 12V35C34 37.208 35.792 39 38 39H24C26.208 39 28 37.208 28 35ZM171 35.2C171 32.992 169.208 31.2 167 31.2C164.792 31.2 163 32.992 163 35.2C163 37.408 164.792 39.2 167 39.2C169.208 39.2 171 37.408 171 35.2ZM140 7V35C140 37.208 138.208 39 136 39H150C147.792 39 146 37.208 146 35V1L140 7ZM163 7.88C161.504 4.984 158.488 3 155 3C150.032 3 146 7.032 146 12C146 5.376 151.376 0 158 0C159.784 0 161.48 0.392 163 1.088V7.872V7.88ZM127.2 32H127.792C124.872 36.856 120.232 40 115 40C106.16 40 99 31.048 99 20C99 8.952 106.16 0 115 0C121.56 0 127.192 4.936 129.664 12H105.928C105.336 14.432 105 17.144 105 20C105 29.392 110.824 37 118 37C121.6 37 124.848 35.088 127.2 32ZM106.192 11H123.808C122.12 5.048 118.808 1 115 1C111.192 1 107.88 5.048 106.192 11ZM83 37C75.824 37 70 29.392 70 20C70 9.504 74.48 1 80 1C84.016 1 87.48 5.504 89.072 12H90V4.392C87.264 1.648 83.784 0 80 0C71.16 0 64 8.952 64 20C64 31.048 71.16 40 80 40C85.232 40 89.872 36.856 92.792 32H92.2C89.848 35.088 86.592 37 83 37Z" fill="#333333"/>
</svg>
